<?xml version="1.0" encoding="utf-8"?>
<!-- Generator: Adobe Illustrator 25.0.1, SVG Export Plug-In . SVG Version: 6.00 Build 0)  -->
<svg version="1.1" id="图层_1" xmlns="http://www.w3.org/2000/svg" xmlns:xlink="http://www.w3.org/1999/xlink" x="0px" y="0px"
	 viewBox="0 0 2048 2048" style="enable-background:new 0 0 2048 2048;" xml:space="preserve">
<style type="text/css">
	.st0{fill:#0E3A5C;stroke:#0E3A5C;}
	.st1{fill:#F9F9F9;stroke:#F9F9F9;}
</style>
<path class="st0" d="M755.5,219h16l22,6c12.3,5.3,22.5,12.8,30.5,22.5c7.1,8.6,12.4,18.9,16,31l2,10v23l-5,19l-9,16l-29,30l-19,24
	l-6,13l-2,8c1,6.3,0.7,11.3-1,15l1,1l1,17l9,23c7.2,12.9,16.4,23.7,27.5,32.5c11.7,9.6,25.7,16.9,42,22l22,4h21l20-4l20-8
	c12.6-6.4,23.4-14.6,32.5-24.5c9.9-10.1,17.5-22.5,23-37l4-14l1-20l-3-13l-22-37c-2.2-4.8-2.9-11.1-2-19c2.1-9.6,6.6-16.8,13.5-21.5
	c4.7-4,11-6.3,19-7l1,1h534l38,8l17,6l21,10c23.1,12.5,43.3,28,60.5,46.5c23.9,25.4,41.9,56.7,54,94l7,35v22l1,1v89l-1,4l1,3l-1,2v2
	l1,2l-1,3l1,2l-1,2l1,1v69l-1,1v35c1.5,9.5,5.6,16.4,12.5,20.5c4.2,3.1,9.9,4.8,17,5l26-8h18l17,6c8.7,5.3,16.2,11.8,22.5,19.5
	c5.7,6.9,10.1,15.3,13,25l2,11v15l-3,17l-6,14c-5.3,9.7-12.2,17.8-20.5,24.5c-7.3,6-15.7,11-25,15l-15,4l-17,1l-16-3l-7-3l-16-11
	l-19-17l-18-10l-11-3h-18l-12,3l-17,8c-9.6,6.1-18.1,13.2-25.5,21.5c-10.8,12.2-19.1,26.9-25,44l-6,26v27l3,17l9,25
	c6.3,13,14.5,24.2,24.5,33.5c9,9,20,16,33,21l15,4h17l14-4l16-10l30-29l8-6c8.9-6.5,21.5-9.1,38-8c23.3,4.4,40.8,14.6,52.5,30.5
	c6.3,7.7,10.9,17,14,28l1,11l1,1v12l-1,1l-1,11l-9,21l-16.5,18.5c-6.3,5.3-14,9.3-23,12l-10,2h-10l-18-4l-4-2l-9-1
	c-8.9,1.8-15.4,6-19.5,12.5l-5,11v125l-1,1l1,4v2c0.8,3.1,0.5,5.1-1,6v24l1,2l-1,3l1,2v2v33l-1,1l1,3l-1,2l1,2l-1,3l1,86l-1,1v15
	l-1,1v7l-3,16c-3.5,14.8-8.2,28.5-14,41l-24,41c-9.7,13.3-20.5,25.5-32.5,36.5c-26.1,24.9-59.4,42.6-100,53l-10,2h-7l-1,1h-180
	c-8.1,1.6-14.2,5.1-18.5,10.5l-5,10v17l-4,15c-5.1,10.9-12.2,19.8-21.5,26.5c-11.9,10.4-28.9,15.7-51,16l-1-1h-8l-9-2l-18-7
	c-11.7-5.9-21.6-13.8-29.5-23.5c-7.3-8.7-12.9-19.1-17-31l-3-14v-25l3-13l9-17l30-33l10-14l5-10l4-13l1-21l-5-20l-7-15
	c-6.9-11.8-15.4-22-25.5-30.5c-9.7-8.6-21.1-15.6-34-21l-26-7l-26-1l-21,4l-26,11c-13.1,7.9-24.6,17.4-34.5,28.5l-10,14l-8,17l-5,19
	v18l3,13l6,12l24,34l3,15l-4,15l-9.5,12.5c-5.4,5.3-12.4,8.9-21,11h-500l-1-1l-18-2l-19-5l-34-14c-25.8-13.5-48-30.6-66.5-51.5
	c-15.1-16.6-27.7-35.6-38-57l-12-32l-6-26c1-3.7,0.7-6-1-7v-252c-1.5-0.8-1.8-2.8-1-6l-3-6l-7.5-7.5c-3.7-4.3-10.4-5.6-20-4l-15,4
	h-11c-22-5.3-38.8-15.8-50.5-31.5c-7.5-9.5-12.9-21.1-16-35l-1-21l-1-1v-44l4-20l10-23c6.2-11.1,14-20.6,23.5-28.5
	c6.6-5.7,14.3-10.4,23-14l12-4l21-2c1.2,1.9,3.9,2.2,8,1l13,4l15,9l9.5,8v2h2v2h2c-0.7,1.8-0.2,2.5,1.5,2c10.4,11.9,22.4,22.3,36,31
	l15,7l15,3h10l15-3l17-7c12.7-7.3,23.5-16.5,32.5-27.5c10.7-12.6,18.7-27.9,24-46l4-21v-27l-5-24l-9-21
	c-6.7-11.7-14.8-21.8-24.5-30.5c-7.1-6.5-15.5-11.9-25-16l-15-4h-18l-12,4l-30,16c-4.3,2.3-10.3,3-18,2c-9.8-2.8-17.3-8-22.5-15.5
	c-3.9-4.4-6.6-10.1-8-17v-21l-1-1l1-1v-330c1.9-1.1,2.2-3.8,1-8c12.4-58.6,37.6-104.4,75.5-137.5c12.2-10.8,25.5-20.5,40-29l25-12
	l32-10l16-3h7l1-1h158l8-2l8.5-6.5c4.2-4.1,6.2-10.5,6-19l-3-12v-14c3.4-17.6,10.9-31.1,22.5-40.5c6.2-5.8,13.5-10.5,22-14
	L755.5,219z M1133,716l-1,1h-15l-6,3c-4,2.7-7,6.7-9,12v594l3,7c2.7,4.7,7,7.7,13,9h205l1-1h12l1-1h9l8-2h6l31-7l23-8l28-14l24-18
	c18-16,32-35.7,42-59l10-31l2-18l1-1v-8l1-1v-36l-1-1l-1-16l-4-17c-6.7-22-16.7-40-30-54c-7.3-8.7-15.7-16-25-22
	c-12.7-8-26.7-14.3-42-19c-2.7,0.7-3.7,0-3-2c12-4.7,23-11,33-19c15.3-12.7,27.3-28.3,36-47l9-27l2-17l1-1v-15l1-1l-2-33l-6-25
	c-6-17.3-14.3-32-25-44c-10.7-13.3-23.3-24.3-38-33l-32-14l-35-9l-21-2l-1-1h-13l-1-1h-190L1133,716z M646,717l-8,4l-6,6l-3,10v586
	l3,10l10,8l9,2h74l1-1h16l7-4l7-14v-205l92-1l1-1l19-1l22-4c36.7-8.7,67-24,91-46c18-16,32.3-35.7,43-59l11-30l3-12l2-17l1-1v-8l1-1
	v-11l1-1l-1-41l-5-29l-3-10c-8-24.7-19.3-45.3-34-62c-14.7-17.3-32.3-31.3-53-42c-11.3-5.3-23.3-10-36-14l-30-7l-13-1l-1-1h-9l-1-1
	h-21l-1-1H646z"/>
<path class="st0" d="M1228,822h80.5l1,1h9l23,7c7.3,3.7,13.4,8.6,18.5,14.5c5.8,6.5,9.8,14.9,12,25l1,11l1,1v21l-1,1l-1,11l-4,13
	c-3.7,9.3-9.2,16.8-16.5,22.5c-8.4,6.6-18.7,11.3-31,14h-11l-1,1H1228V822z"/>
<path class="st0" d="M760.5,824h70l1,1h12l1,1l11,1l23,9c7.7,4.3,14.2,9.8,19.5,16.5c6.4,7.9,11.1,17.6,14,29l2,11v11l1,1v20l-1,1
	l-1,16l-7,23c-5.3,11.1-12.4,20.2-21.5,27.5l-19,12l-24,7h-8l-1,1H756V825.5l3.5-0.5L760.5,824z"/>
<path class="st0" d="M1228,1065h94.5c1.1,1.9,3.8,2.2,8,1c18.7,3.9,33.6,11.8,44.5,23.5c6.9,7.5,11.9,16.8,15,28l2,9v8l1,1v23l-3,17
	l-5,14c-4.7,9.3-10.8,17.2-18.5,23.5c-10.9,9.1-24.9,15.1-42,18h-10l-1,1H1228V1065z"/>
<path class="st1" d="M1132.5,716l1,1h190l1,1h13l1,1l21,2l35,9l32,14c14.8,8.9,27.6,19.7,38.5,32.5c10.9,12.1,19.2,26.8,25,44l6,25
	l2,33l-1,1v15l-1,1l-2,17l-9,27c-9,19-21.2,34.8-36.5,47.5c-9.5,8-20.3,14.3-32.5,19c-0.8,2,0,2.7,2.5,2c15.5,4.9,29.5,11.2,42,19
	c9.5,6.1,18,13.3,25.5,21.5c13.6,14.4,23.6,32.4,30,54l4,17l1,16l1,1v36l-1,1v8l-1,1l-2,18l-10,31c-10.1,23.9-24.3,43.7-42.5,59.5
	l-24,18l-28,14l-23,8l-31,7h-6l-8,2h-9l-1,1h-12l-1,1h-205c-5.7-1.6-9.9-4.8-12.5-9.5l-3-7v-594c1.7-4.9,4.6-8.8,8.5-11.5l6-3h15
	L1132.5,716z M1228,822v143h81l1-1h11c12-2.7,22.3-7.3,31-14c6.7-6,12-13.3,16-22l4-13l1-11l1-1v-21l-1-1l-1-11c-2-10.7-6-19-12-25
	c-5.3-6-11.3-11-18-15l-23-7h-9l-1-1H1228z M1228,1065v167h86l1-1h10c16.7-2.7,30.7-8.7,42-18c7.3-6,13.3-13.7,18-23l5-14l3-17v-23
	l-1-1v-8l-2-9c-3.3-11.3-8.3-20.7-15-28c-10.7-12-25.3-20-44-24c-4.7,1.3-7.3,1-8-1H1228z"/>
<path class="st1" d="M645.5,717h189l1,1h21l1,1h9l1,1l13,1l30,7c12.9,3.7,24.9,8.4,36,14c21,10.7,38.8,24.5,53.5,41.5
	c14.9,17.1,26.3,37.7,34,62l3,10l5,29l1,41l-1,1v11l-1,1v8l-1,1l-2,17l-3,12l-11,30c-10.9,23.4-25.4,43.2-43.5,59.5
	c-23.8,21.9-54.1,37.2-91,46l-22,4l-19,1l-1,1l-91.5,1v204.5l-7,14.5l-7.5,4h-16l-1,1h-74l-9-2l-9.5-8.5l-3-10v-586l3-10l5.5-5.5
	L645.5,717z M761,824l-1,1l-4,1v186h77l1-1h8l24-7l19-12c8.7-7.3,15.7-16.3,21-27l7-23l1-16l1-1v-20l-1-1v-11l-2-11
	c-2.7-12-7.3-21.7-14-29c-5.3-7.3-11.7-13-19-17l-23-9l-11-1l-1-1h-12l-1-1H761z"/>
</svg>
